<svg xmlns="http://www.w3.org/2000/svg" width="79.84" height="30.63" viewBox="0 0 79.84 30.63"><path d="M6,6.2a.49.49,0,0,0-.07.32q0,5.57,0,11.12,0,4.44,0,8.86c0,.09,0,.17,0,.25a.23.23,0,0,1-.27.25c-1.76,0-3.51,0-5.26,0-.14,0-.18-.05-.17-.17a.75.75,0,0,0,0-.15Q.16,15,.16,3.31c0-.25,0-.32.31-.32h9.4a1,1,0,0,1,.74.3Q13.81,6.53,17,9.73a.78.78,0,0,1,.23.58v6.85c0,.08,0,.19,0,.23s-.13-.07-.19-.13l-2.7-2.66-7-7C6.88,7.17,6.44,6.7,6,6.2Z" transform="translate(-0.16 0.08)" style="fill:#04a9f3"/><path d="M8.58,12.56,19.83,23.73c.08-.06.05-.12.05-.18,0-1.18,0-2.37,0-3.56,0-3.92,0-7.83,0-11.75,0-1.62,0-3.24,0-4.87,0-.34,0-.37.37-.37h4.93c.39,0,.39,0,.39.4q0,11.31,0,22.62c0,.21,0,.43,0,.65s-.07.33-.33.33c-2.89,0-5.78,0-8.68,0-.28,0-.57,0-.85,0a.59.59,0,0,1-.47-.19L8.66,20.18a.48.48,0,0,1-.15-.36c0-2.37,0-4.73,0-7.1C8.52,12.67,8.5,12.62,8.58,12.56Z" transform="translate(-0.16 0.08)" style="fill:#04a9f3"/><text transform="translate(26.84 22.22)" style="font-size:25.893583297729492px;fill:#03a9f4;font-family:ArialMT, Arial">avify</text></svg>