<svg xmlns="http://www.w3.org/2000/svg" width="200" height="200" viewBox="0 0 200 200">
  <g>
    <path d="M0,100.05Q0,51,0,1.86C0,.5.15,0,1.74,0Q100,.08,198.31,0c1.44,0,1.68.34,1.68,1.72q-.06,98.18,0,196.37c0,1.69-.46,1.91-2,1.91q-98.08-.06-196.17,0C.42,200,0,199.76,0,198.23Q.08,149.15,0,100.05Zm180-35.4h0V44Q180,25,180,6.1c0-2.17,0-2.17-2-1.16l-9.53,4.91c-8.19,4.24-16.36,8.52-24.57,12.71S127.57,31,120,36.38c-8.92,6.42-13.41,14.92-13.4,25.86,0,8,.06,16,0,24,0,1.49.48,1.51,1.6.93,3.11-1.62,6.26-3.17,9.38-4.77,8.28-4.21,16.55-8.45,24.83-12.64.61-.3,1.73-1.49,1.7.55-.21,13.39.6,26.8-.85,40.15a45.29,45.29,0,0,1-8.23,22.21c-6.42,8.81-15.49,13.86-25.4,17.65-2.68,1-3,1.33-3,4.22q0,19.71.08,39.42v1c0,1.55.5,2.24,2.23,1.66,3.26-1.08,6.62-1.89,9.87-3,19.4-6.72,35.74-17.77,48-34.46A66,66,0,0,0,180,119.31Q180.06,92,180,64.65ZM56.27,86.37c0-5.21,0-10.41,0-15.62,0-1.68.28-1.82,1.78-1,11.3,5.86,22.65,11.63,34,17.45,1,.52,1.61.77,1.62-.82,0-7,.18-14,.19-21.07a43.51,43.51,0,0,0-2.14-15C89,43,83.28,38.38,77.21,34.15c-7.27-5.08-15.34-8.73-23.15-12.84C43.83,15.92,33.51,10.7,23.24,5.39c-2.9-1.49-2.89-1.52-2.89,1.77q0,56.72,0,113.42a62.12,62.12,0,0,0,10,33.9c8.89,14,20.91,24.53,35.47,32.33,8.25,4.41,17.05,7.3,26,9.9,1.46.42,1.89-.11,1.88-1.62q-.12-20.79-.09-41.58a2.65,2.65,0,0,0-2-2.88q-3.28-1.22-6.5-2.64C68.69,140.73,59,128.4,57,110.34A199.76,199.76,0,0,1,56.27,86.37Z" transform="translate(0 0)" style="fill: none"/>
    <path d="M171,68.72q0,24.23,0,48.46a58.56,58.56,0,0,1-11.68,35.31c-10.85,14.8-25.34,24.6-42.55,30.56-2.88,1-5.86,1.72-8.75,2.68-1.53.51-2-.1-2-1.47,0-.29,0-.58,0-.87q0-17.47-.07-35c0-2.56.28-2.83,2.67-3.74,8.79-3.36,16.83-7.85,22.52-15.66a40.13,40.13,0,0,0,7.3-19.69c1.28-11.84.57-23.73.75-35.61,0-1.8-1-.75-1.5-.48q-11,5.58-22,11.21c-2.77,1.41-5.56,2.79-8.32,4.22-1,.52-1.42.5-1.42-.81,0-7.1,0-14.2,0-21.29,0-9.7,4-17.24,11.88-22.93,6.68-4.81,13.94-8.54,21.23-12.26s14.52-7.51,21.78-11.27l8.45-4.36c1.73-.89,1.74-.89,1.74,1q0,16.8,0,33.58V68.72Z" transform="translate(0 0)" style="fill: #35a5dc"/>
    <path d="M61.24,88a177.36,177.36,0,0,0,.64,21.25c1.78,16,10.37,27,25,33.39q2.84,1.26,5.76,2.34a2.37,2.37,0,0,1,1.77,2.56q0,18.43.08,36.87c0,1.34-.38,1.81-1.68,1.43-7.91-2.3-15.72-4.86-23-8.77a82.79,82.79,0,0,1-31.45-28.67,55.08,55.08,0,0,1-8.89-30.06q0-50.29,0-100.58c0-2.93,0-2.9,2.56-1.57,9.11,4.71,18.26,9.33,27.33,14.11,6.92,3.65,14.09,6.89,20.53,11.39,5.38,3.75,10.48,7.82,12.82,14.3a38.66,38.66,0,0,1,1.89,13.29c0,6.22-.14,12.45-.17,18.68,0,1.41-.52,1.19-1.43.73-10-5.16-20.11-10.27-30.13-15.47-1.33-.69-1.6-.56-1.58.93C61.28,78.74,61.24,83.36,61.24,88Z" transform="translate(0 0)" style="fill: #2b74b9"/>
  </g>
</svg>
