<svg xmlns="http://www.w3.org/2000/svg" width="128" height="128" viewBox="0 0 128 128">
  <path d="M2.46,5.8l17,0q15.35,0,30.71,0a2.41,2.41,0,0,1,1.88.75q16.13,16.2,32.3,32.34A1.72,1.72,0,0,1,85,40.22q0,17.58,0,35.15a2.69,2.69,0,0,1-.11.45L30.05,21.25v1.51q-.07,48.82-.12,97.65c0,1.26-.33,1.55-1.56,1.55-8.64,0-17.28,0-25.91,0Z" transform="translate(0 0)" style="fill: #38a4dd"/>
  <path d="M42.8,51.85l54.93,54.62V105q.08-48.89.15-97.77c0-1,.19-1.41,1.34-1.4q12.47.09,25,0c.94,0,1.17.24,1.17,1.18q0,56.86,0,113.73c0,1-.23,1.23-1.23,1.23q-23.28,0-46.54,0a2.38,2.38,0,0,1-1.88-.76Q59.57,105,43.39,88.84a1.87,1.87,0,0,1-.64-1.44q0-17.4,0-34.79C42.77,52.42,42.78,52.24,42.8,51.85Z" transform="translate(0 0)" style="fill: #38a4dd"/>
</svg>
