<svg xmlns="http://www.w3.org/2000/svg" width="128" height="128" viewBox="0 0 128 128">
    <path d="M125.73,122.36l-28.66,0q-9.63,0-19.27,0a2.42,2.42,0,0,1-1.89-.75Q59.73,105.33,43.49,89.12a1.69,1.69,0,0,1-.66-1.31q0-17.72,0-35.41a1.74,1.74,0,0,1,.12-.34L98,106.81v-1.47q.09-49.08.14-98.15c0-1.14.24-1.45,1.43-1.45,8.71,0,17.42,0,26.13,0Z" style="fill: #010101"/>
    <path d="M85.17,76.05,30.08,21.26v1.45Q30,71.79,30,120.88c0,1.25-.35,1.48-1.53,1.48q-12.4-.09-24.81,0c-.94,0-1.28-.14-1.28-1.2Q2.4,64,2.35,7c0-.89.15-1.21,1.15-1.21q23.49.06,47,0a2.15,2.15,0,0,1,1.66.72q16.2,16.24,32.44,32.46a1.86,1.86,0,0,1,.71,1.41q0,17.65,0,35.29A2.08,2.08,0,0,1,85.17,76.05Z" style="fill: #010101"/>
</svg>
